<?xml version="1.0" encoding="UTF-8"?>
<svg id="Layer_2" data-name="Layer 2" xmlns="http://www.w3.org/2000/svg" viewBox="0 0 27.2 7.09">
  <defs>
    <style>
      .cls-1 {
        fill: #231f20;
      }
    </style>
  </defs>
  <g id="Layer_1-2" data-name="Layer 1">
    <path class="cls-1" d="m11.4,1.8l-.18.16v.31l.78.16h.67v-.63s-1.27,0-1.27,0Zm-3.53-.43v.1l.24.18h1.95l.23-.14v-.09l-.37-.23h-1.82l-.23.17ZM1.2,2.42v-.38h.21l.22.17.02.07h2.13l.18-.21h1.05l.3.34h2.11l.23.23h.17v-.7l-.31-.3h-.43v-.67l.42-.24h2.92l.44.3h1.58l.3-.19h.93l-.09.23h.04s0,1.03,0,1.03l.34-.24h.57v-.23l.37-.26h.28v-.18l.06-.13v-.27h.87v.14h.06v.22h1.69V.08h.13v-.08h.32v.09h.09v1.04h.11v-.34h1.42v.11l.05.07v.17h.24v.29l.37.15v.5h.53l.76.17v.13s1.03,0,1.03,0l1.89.79h2.29l.11.11v1.36l-.18.08h-2.16l-1.95.86h-1.04v.11l-.72.17h-.54v.48l-.36.18v.15h-.03v.1h-.24v.31h-1.4v-.1h-.08v-.21h-2.25v.16h-.06v.17h-.85v-.1h-.07v-.28h-.07v-.17h-.36l-.31-.25v-.22h-.54l-.4-.21v-.34h-1.55l-1.21.22h-1.85l-.18-.18h-.75l-.23-.24h-.17l-.25.25h-2.08l-.26.32h-1.05l-.23-.17H1.65l-.15.11h-.31l-.04-.26v-.04s-.34,0-.34,0c0,0-.24-.05-.55-.19C-.05,5.2.02,4.51.02,4.06s-.07-1.03.09-1.25c.16-.22.73-.38.73-.38h.36Z"/>
  </g>
</svg>