<?xml version="1.0" encoding="UTF-8"?>
<svg id="Layer_2" data-name="Layer 2" xmlns="http://www.w3.org/2000/svg" viewBox="0 0 24.76 7.48">
  <defs>
    <style>
      .cls-1 {
        fill: #231f20;
      }
    </style>
  </defs>
  <g id="Layer_1-2" data-name="Layer 1">
    <path class="cls-1" d="m24.75,2.42v-1.26s-.04-.07-.04-.07l-9.16-.03v-.33s-.17,0-.17,0V0s-2.03,0-2.03,0h-3.01s0,.7,0,.7h-.27s0,.37,0,.37h-4.88s0-.38,0-.38h-2.47v.22l-.58.12-.64.02v.11S.05,1.45.05,1.45v1.26s-.05.14-.05.14l.05.2,2.7.51v.17l-.43.02.24.48.07.35h3.48s.17.1.17.1h2.8s.54.07.54.07l.62.22.44.39.17.48v1.14s.83.52.83.52v-2.89s2.91,0,2.91,0l.35.26-.11.17.6,1.93.19.23.97-.32v-.13s.69-.37.69-.37l.18-.22-.05-1.65.12-.12h3.47s.01.17.01.17h.63s.22.14.22.14v2.25s.07.19.07.19h.99l.1-.26v-2.36s-.05-.12-.05-.12h.23v-.42l-.03-.03h-.44s0-.15,0-.15h-1.75v.13s-3.47.01-3.47.01v-.15s-1.96,0-1.96,0v-.3h2.29s0,.08,0,.08h.28v-.08h.46v.08s.24,0,.24,0v-.08s5.84,0,5.84,0l.02-.09v-.85s.06-.1.06-.1Zm-14.69,1.33l-4.85-.02v-.31l4.85.02v.31Zm7.08,2.52l-.59.32-.62-1.8.03-.21,1.29-.02.04,1.54-.14.17ZM.18,2.71l.05-.95,1.29-.04.03,1.01-1.36-.03Z"/>
  </g>
</svg>